# xmcd
#
# Track frame offsets: 
#        150
#        16599
#        32005
#        49208
#        68193
#        87731
#        103981
#        118894
#        135629
#        151438
#
# Disc length: 2234 seconds
#
# Revision: 1
# Processed by: cddbd v1.5.2PL0 Copyright (c) Steve Scherf et al.
# Submitted via: ExactAudioCopyFreeDBPlugin 1.0
#
DISCID=8908b80a
DTITLE=Doc Walker - Beautiful Life
DYEAR=2008
DGENRE=Country
TTITLE0=Beautiful Life
TTITLE1=Echo Road
TTITLE2=That's All
TTITLE3=Angry Heart
TTITLE4=One Last Sundown
TTITLE5=On The Heels Of A Heartache
TTITLE6=Annabelle
TTITLE7=A Little Love Along The Way
TTITLE8=Without Your Love
TTITLE9=Stay Brave
EXTD=YEAR: 2008
EXTT0=
EXTT1=
EXTT2=
EXTT3=
EXTT4=
EXTT5=
EXTT6=
EXTT7=
EXTT8=
EXTT9=
PLAYORDER=
